<svg width="21" height="26" viewBox="0 0 21 26" fill="none" xmlns="http://www.w3.org/2000/svg">
<path d="M1 22V4C1 3.20435 1.31278 2.44129 1.86953 1.87868C2.42628 1.31607 3.18139 1 3.96875 1H18.8125C19.1274 1 19.4295 1.12643 19.6522 1.35147C19.8749 1.57652 20 1.88174 20 2.2V23.8C20 24.1183 19.8749 24.4235 19.6522 24.6485C19.4295 24.8736 19.1274 25 18.8125 25H3.96875C3.18139 25 2.42628 24.6839 1.86953 24.1213C1.31278 23.5587 1 22.7957 1 22ZM1 22C1 21.2044 1.31278 20.4413 1.86953 19.8787C2.42628 19.3161 3.18139 19 3.96875 19H20M5.75 11.8H15.25M5.75 7H12.875" stroke="black" stroke-width="2" stroke-linecap="round" stroke-linejoin="round"/>
</svg>
