<svg width="39" height="30" viewBox="0 0 39 30" fill="none" xmlns="http://www.w3.org/2000/svg">
<path d="M39 3.21454V26.7855C38.9997 27.6379 38.6571 28.4554 38.0476 29.0581C37.4382 29.6609 36.6116 29.9997 35.7497 30H3.2503C2.38837 29.9997 1.56183 29.6609 0.952349 29.0581C0.342869 28.4554 0.000323004 27.6379 0 26.7855V3.21454C0.000323004 2.36209 0.342869 1.54465 0.952349 0.941871C1.56183 0.339096 2.38837 0.00031945 3.2503 0H35.7497C36.6116 0.00031945 37.4382 0.339096 38.0476 0.941871C38.6571 1.54465 38.9997 2.36209 39 3.21454Z" fill="#283646"/>
<path d="M15.9531 9.45508H21.8478V20.1417H15.9531V9.45508Z" fill="#FF5F00"/>
<path d="M16.3274 14.7972C16.3274 12.6259 17.3379 10.7 18.8911 9.4538C17.7496 8.54753 16.3088 8 14.7369 8C11.0128 8 8 11.0398 8 14.7972C8 18.5545 11.0128 21.5943 14.7368 21.5943C16.3087 21.5943 17.7496 21.0468 18.8911 20.1405C17.3379 18.9132 16.3274 16.9685 16.3274 14.7972Z" fill="#EB001B"/>
<path d="M29.8012 14.7972C29.8012 18.5545 26.7884 21.5943 23.0644 21.5943C21.4925 21.5943 20.0517 21.0468 18.9102 20.1405C20.4821 18.8944 21.4739 16.9685 21.4739 14.7972C21.4739 12.6259 20.4633 10.7 18.9102 9.4538C20.0516 8.54753 21.4925 8 23.0644 8C26.7884 8 29.8013 11.0587 29.8013 14.7972H29.8012Z" fill="#F79E1B"/>
</svg>
