<svg width="39" height="30" viewBox="0 0 39 30" fill="none" xmlns="http://www.w3.org/2000/svg">
<path d="M39 3.21454V26.7855C38.9997 27.6379 38.6571 28.4554 38.0477 29.0581C37.4382 29.6609 36.6116 29.9997 35.7497 30H3.2503C2.38837 29.9997 1.56183 29.6609 0.952349 29.0581C0.342869 28.4554 0.000323004 27.6379 0 26.7855V3.21454C0.000323004 2.36209 0.342869 1.54465 0.952349 0.941871C1.56183 0.339096 2.38837 0.00031945 3.2503 0H35.7497C36.6116 0.00031945 37.4382 0.339096 38.0477 0.941871C38.6571 1.54465 38.9997 2.36209 39 3.21454Z" fill="#F0F0F0"/>
<path d="M25.4586 10.0625H22.8439C22.6901 10.0625 22.5363 10.2146 22.4594 10.3667L21.3828 17.0595C21.3828 17.2117 21.4597 17.2877 21.6135 17.2877H22.9977C23.1515 17.2877 23.2284 17.2117 23.2284 17.0595L23.536 15.1582C23.536 15.0061 23.6898 14.854 23.9205 14.854H24.7665C26.5352 14.854 27.5349 14.0174 27.7656 12.3441C27.9194 11.6597 27.7656 11.0512 27.458 10.6709C26.9966 10.2907 26.3045 10.0625 25.4586 10.0625ZM25.7662 12.5723C25.6124 13.485 24.9203 13.485 24.2281 13.485H23.7667L24.0743 11.7357C24.0743 11.6597 24.1512 11.5836 24.305 11.5836H24.4588C24.9203 11.5836 25.3817 11.5836 25.6124 11.8878C25.7662 11.9639 25.7662 12.192 25.7662 12.5723Z" fill="#139AD6"/>
<path d="M6.61872 10.0625H4.00409C3.85028 10.0625 3.69648 10.2146 3.61958 10.3667L2.54297 17.0595C2.54297 17.2117 2.61987 17.2877 2.77367 17.2877H4.00409C4.15789 17.2877 4.31169 17.1356 4.38859 16.9835L4.69619 15.1582C4.69619 15.0061 4.85 14.854 5.0807 14.854H5.92661C7.69533 14.854 8.69504 14.0174 8.92575 12.3441C9.07955 11.6597 8.92574 11.0512 8.61814 10.6709C8.15673 10.2907 7.54153 10.0625 6.61872 10.0625ZM6.92632 12.5723C6.77252 13.485 6.08041 13.485 5.3883 13.485H5.0038L5.3114 11.7357C5.3114 11.6597 5.3883 11.5836 5.5421 11.5836H5.69591C6.15731 11.5836 6.61872 11.5836 6.84942 11.8878C6.92632 11.9639 7.00322 12.192 6.92632 12.5723Z" fill="#263B80"/>
<path d="M14.5379 12.4959H13.3075C13.2306 12.4959 13.0768 12.5719 13.0768 12.648L12.9999 13.0282L12.923 12.8761C12.6154 12.4959 12.0771 12.3438 11.4619 12.3438C10.0777 12.3438 8.84724 13.4085 8.61653 14.8536C8.46273 15.6141 8.69344 16.2986 9.07794 16.7549C9.46245 17.2113 10.0008 17.3634 10.6929 17.3634C11.8464 17.3634 12.4616 16.6789 12.4616 16.6789L12.3847 17.0591C12.3847 17.2113 12.4616 17.2873 12.6154 17.2873H13.7689C13.9227 17.2873 14.0765 17.1352 14.1534 16.9831L14.8455 12.724C14.7686 12.648 14.6148 12.4959 14.5379 12.4959ZM12.7692 14.9296C12.6154 15.6141 12.0771 16.1465 11.3081 16.1465C10.9236 16.1465 10.616 15.9944 10.4622 15.8423C10.3084 15.6141 10.2315 15.3099 10.2315 14.9296C10.3084 14.2451 10.9236 13.7127 11.6157 13.7127C12.0002 13.7127 12.2309 13.8648 12.4616 14.017C12.6923 14.2451 12.7692 14.6254 12.7692 14.9296Z" fill="#263B80"/>
<path d="M33.3035 12.4959H32.0731C31.9962 12.4959 31.8424 12.5719 31.8424 12.648L31.7655 13.0282L31.6886 12.8761C31.381 12.4959 30.8427 12.3438 30.2275 12.3438C28.8433 12.3438 27.6129 13.4085 27.3822 14.8536C27.2284 15.6141 27.4591 16.2986 27.8436 16.7549C28.2281 17.2113 28.7664 17.3634 29.4585 17.3634C30.612 17.3634 31.2272 16.6789 31.2272 16.6789L31.1503 17.0591C31.1503 17.2113 31.2272 17.2873 31.381 17.2873H32.5345C32.6883 17.2873 32.8421 17.1352 32.919 16.9831L33.6111 12.724C33.5342 12.648 33.4573 12.4959 33.3035 12.4959ZM31.5348 14.9296C31.381 15.6141 30.8427 16.1465 30.0737 16.1465C29.6892 16.1465 29.3816 15.9944 29.2278 15.8423C29.074 15.6141 28.9971 15.3099 28.9971 14.9296C29.074 14.2451 29.6892 13.7127 30.3813 13.7127C30.7658 13.7127 30.9965 13.8648 31.2272 14.017C31.5348 14.2451 31.6117 14.6254 31.5348 14.9296Z" fill="#139AD6"/>
<path d="M21.228 12.4961H19.9207C19.7669 12.4961 19.69 12.5721 19.6131 12.6482L17.9213 15.2341L17.1523 12.8003C17.0754 12.6482 16.9985 12.5721 16.7678 12.5721H15.5373C15.3835 12.5721 15.3066 12.7243 15.3066 12.8764L16.6909 16.9073L15.3835 18.7326C15.3066 18.8847 15.3835 19.1129 15.5373 19.1129H16.7678C16.9216 19.1129 16.9985 19.0368 17.0754 18.9608L21.3049 12.9524C21.5356 12.7243 21.3818 12.4961 21.228 12.4961Z" fill="#263B80"/>
<path d="M34.7641 10.2913L33.6875 17.1363C33.6875 17.2884 33.7644 17.3644 33.9182 17.3644H34.9948C35.1486 17.3644 35.3024 17.2123 35.3793 17.0602L36.4559 10.3674C36.4559 10.2153 36.379 10.1392 36.2252 10.1392H34.9948C34.9179 10.0632 34.841 10.1392 34.7641 10.2913Z" fill="#139AD6"/>
</svg>
