<svg width="102" height="104" viewBox="0 0 102 104" fill="none" xmlns="http://www.w3.org/2000/svg">
<path d="M2.81287 84.7569H0V69.4316H5.27933C8.66493 69.4316 10.7434 71.0436 10.7434 74.1336C10.7434 77.6347 8.25386 79.3898 4.77587 79.3898H2.81749V84.7615L2.81287 84.7569ZM4.47565 77.1497C6.48022 77.1497 7.83816 76.4569 7.83816 74.4061C7.83816 72.032 6.48022 71.6625 4.22161 71.6625H2.81749V77.1497H4.47565Z" fill="#181717"/>
<path d="M15.262 84.7561H12.5184V75.0288L12.3105 73.1628H14.5692L14.8463 74.8441C15.3544 73.5323 16.4814 72.8164 17.6361 72.8164C18.3289 72.8164 18.9709 72.9781 19.479 73.2783L18.994 75.6062C18.4859 75.3291 17.9548 75.1443 17.3589 75.1443C16.1165 75.1443 15.3082 76.1373 15.262 77.4722V84.7561Z" fill="#181717"/>
<path d="M25.192 72.8164C26.8964 72.8164 30.2173 73.3476 30.2173 78.6454C30.2173 83.0702 27.8663 85.0979 24.8225 85.0979C21.7787 85.0979 19.8203 83.1164 19.8203 78.9456C19.8203 74.1513 22.8179 72.8164 25.192 72.8164ZM27.4044 79.0149C27.4044 76.433 26.804 74.8441 25.0535 74.8441C23.3029 74.8441 22.6101 76.4099 22.6101 78.6223C22.6101 80.8347 22.9565 83.0702 25.0073 83.0702C26.6885 83.0702 27.4044 81.4121 27.4044 79.0149Z" fill="#181717"/>
<path d="M35.1733 68.7383V73.1631H38.2864V75.3063H35.1733V81.1583C35.1733 82.5625 35.7275 82.9781 36.6698 82.9781C37.2933 82.9781 37.8661 82.7241 38.2356 82.4932L38.9284 84.2668C38.2356 84.7518 37.0855 85.0751 36.0001 85.0751C32.4066 85.0751 32.4297 82.8627 32.4297 81.2507V68.7383H35.1733Z" fill="#181717"/>
<path d="M48.7253 76.0219C48.7253 79.5692 44.3235 80.0311 42.2035 80.0542C42.2958 81.5507 43.1503 83.0056 45.1087 83.0056C46.4667 83.0056 47.4597 82.3821 48.014 81.9895L48.8684 83.8093C48.4989 84.1326 46.9793 85.098 44.8131 85.098C41.0118 85.098 39.4414 82.6546 39.4414 79.1997C39.4414 75.7448 41.3998 72.8165 45.0625 72.8165C47.3211 72.8165 48.7253 73.9712 48.7253 76.0219ZM44.9009 74.7749C43.058 74.7749 42.1804 76.5716 42.1111 78.2759C43.3536 78.299 46.2819 77.9064 46.2819 76.1328C46.2819 75.2783 45.7276 74.7749 44.9009 74.7749ZM45.2889 66.4102C46.0048 66.5949 47.0394 66.9875 47.0394 67.7912C47.0394 68.1145 46.8315 68.484 46.4158 68.9228C45.6999 69.6849 44.5036 70.6964 43.5106 71.5971L42.6099 70.835L45.2842 66.4102H45.2889Z" fill="#181717"/>
<path d="M51.1914 87.7491C51.1914 85.9293 52.2723 84.636 53.7503 83.6476C51.815 83.3704 50.0645 81.9663 50.0645 78.6916C50.0645 74.7748 52.5309 72.8164 55.7595 72.8164C57.0712 72.8164 58.8726 73.0935 60.2305 73.6709V82.4513C60.2305 83.2596 60.2305 84.5713 60.1612 85.4027C59.8841 88.7883 58.3183 90.8437 55.0667 90.8437C52.5078 90.8437 51.1961 89.6705 51.1961 87.7537L51.1914 87.7491ZM57.4823 75.0981C56.9511 74.9134 56.3507 74.821 55.7087 74.821C53.7965 74.821 52.8034 76.3406 52.8034 78.5068C52.8034 80.2343 53.0575 82.1695 55.2699 82.1695C56.4893 82.1695 57.4823 81.3151 57.4823 79.9109V75.0935V75.0981ZM55.293 88.8345C57.0897 88.8345 57.5054 87.1302 57.5054 84.7561V83.2596C55.0389 84.5021 53.7041 85.8184 53.7041 87.3149C53.7041 88.4004 54.3507 88.8345 55.293 88.8345Z" fill="#181717"/>
<path d="M71.7272 76.0219C71.7272 79.5691 67.3255 80.031 65.2054 80.0541C65.2978 81.5506 66.1523 83.0056 68.1107 83.0056C69.4686 83.0056 70.4617 82.382 71.0159 81.9894L71.8704 83.8092C71.5009 84.1326 69.9813 85.0979 67.8151 85.0979C64.0138 85.0979 62.4434 82.6545 62.4434 79.1996C62.4434 75.7448 64.4017 72.8164 68.0645 72.8164C70.3231 72.8164 71.7272 73.9711 71.7272 76.0219ZM67.8982 74.7748C66.0553 74.7748 65.1777 76.5715 65.1084 78.2759C66.3509 78.299 69.2792 77.9064 69.2792 76.1327C69.2792 75.2782 68.725 74.7748 67.8982 74.7748Z" fill="#181717"/>
<path d="M73.7313 84.7561V75.1674L73.5234 73.1628H75.8051L76.0361 74.6131C76.7982 73.4584 77.9252 72.8164 79.3801 72.8164C80.8351 72.8164 81.939 73.3707 82.5856 74.6593C83.2784 73.463 84.4978 72.8164 85.9527 72.8164C88.2806 72.8164 89.6155 74.1743 89.6155 76.8948V84.7515H86.8719V77.4445C86.8719 76.0865 86.6409 74.9318 85.1213 74.9318C83.8558 74.9318 83.0475 75.9895 83.0475 77.1904V84.7515H80.3039V77.4445C80.3039 76.202 80.1422 74.9318 78.5534 74.9318C77.2647 74.9318 76.4795 76.0404 76.4795 77.2828V84.7515H73.7359L73.7313 84.7561Z" fill="#181717"/>
<path d="M101.135 76.0219C101.135 79.5691 96.7337 80.031 94.6136 80.0541C94.706 81.5506 95.5605 83.0056 97.5189 83.0056C98.8768 83.0056 99.8699 82.382 100.424 81.9894L101.279 83.8092C100.909 84.1326 99.3895 85.0979 97.2233 85.0979C93.422 85.0979 91.8516 82.6545 91.8516 79.1996C91.8516 75.7448 93.8099 72.8164 97.4727 72.8164C99.7313 72.8164 101.135 73.9711 101.135 76.0219ZM97.3064 74.7748C95.4635 74.7748 94.5859 76.5715 94.5166 78.2759C95.7591 78.299 98.6874 77.9064 98.6874 76.1327C98.6874 75.2782 98.1332 74.7748 97.3064 74.7748Z" fill="#181717"/>
<path d="M5.955 93.5586V94.7687H3.73796V101.157H2.35693V94.7687H0.195312V93.5586H5.955Z" fill="#181717"/>
<path d="M10.4577 95.4121V100.202L10.5501 101.163H9.3861L9.30758 100.488H9.2614C8.87341 101.061 8.25449 101.324 7.60323 101.324C6.34691 101.324 5.71875 100.659 5.71875 99.3104V95.4121H7.07669V99.061C7.07669 99.7584 7.2014 100.271 7.96812 100.271C8.58705 100.271 9.09974 99.7215 9.09974 99.1718V95.4121H10.4623H10.4577Z" fill="#181717"/>
<path d="M13.2806 101.161H11.918V96.3388L11.8164 95.415H12.9388L13.0773 96.251C13.3268 95.5998 13.8903 95.2441 14.4584 95.2441C14.8002 95.2441 15.1235 95.3227 15.3729 95.4751L15.1327 96.6298C14.8833 96.4912 14.62 96.3988 14.3198 96.3988C13.7009 96.3988 13.3037 96.8884 13.2806 97.5536V101.165V101.161Z" fill="#181717"/>
<path d="M16.7781 93C17.2446 93 17.5679 93.3418 17.5679 93.7667C17.5679 94.1916 17.2354 94.5196 16.7781 94.5196C16.2977 94.5196 15.9883 94.2009 15.9883 93.7667C15.9883 93.3325 16.307 93 16.7781 93ZM16.1038 101.161V95.411H17.4617V101.161H16.1038Z" fill="#181717"/>
<path d="M18.7771 99.7766C19.1558 100.017 19.8302 100.326 20.4121 100.326C20.8925 100.326 21.2805 100.109 21.2805 99.5965C21.2805 99.0838 20.8463 98.9222 20.3105 98.7605C19.4745 98.5203 18.5369 98.2478 18.5369 97.0561C18.5369 95.8645 19.5207 95.2363 20.6292 95.2363C21.4883 95.2363 22.2274 95.5781 22.6985 96.0492L22.0472 96.8483C21.613 96.4696 21.1327 96.2294 20.6523 96.2294C20.2413 96.2294 19.8533 96.4372 19.8533 96.8945C19.8533 97.421 20.3336 97.5688 20.8694 97.7305C21.7054 97.9938 22.6292 98.3263 22.6292 99.5041C22.6292 100.682 21.747 101.333 20.4676 101.333C19.4838 101.333 18.6708 100.978 18.3752 100.751L18.7771 99.7813V99.7766Z" fill="#181717"/>
<path d="M23.6817 101.162V96.4042L23.5801 95.4111H24.7117L24.8272 96.1317C25.2059 95.5589 25.7648 95.2402 26.4853 95.2402C27.2059 95.2402 27.7555 95.5128 28.0742 96.1548C28.416 95.5589 29.0211 95.2402 29.7416 95.2402C30.8963 95.2402 31.5614 95.9146 31.5614 97.2633V101.162H30.2035V97.5358C30.2035 96.8614 30.088 96.2887 29.3351 96.2887C28.707 96.2887 28.3051 96.8153 28.3051 97.4065V101.157H26.9472V97.5312C26.9472 96.9123 26.8687 96.2841 26.0789 96.2841C25.4368 96.2841 25.0489 96.8337 25.0489 97.448V101.152H23.6909L23.6817 101.162Z" fill="#181717"/>
<path d="M35.3206 95.2402C36.1659 95.2402 37.8148 95.5035 37.8148 98.1316C37.8148 100.326 36.6508 101.332 35.1405 101.332C33.6301 101.332 32.6602 100.349 32.6602 98.2794C32.6602 95.9007 34.1474 95.2402 35.3252 95.2402H35.3206ZM36.4153 98.3118C36.4153 97.0324 36.1197 96.2425 35.2513 96.2425C34.383 96.2425 34.0412 97.0185 34.0412 98.1178C34.0412 99.2171 34.2121 100.326 35.2282 100.326C36.0642 100.326 36.4153 99.5034 36.4153 98.3118Z" fill="#181717"/>
<path d="M42.7855 101.161H41.3906V93.5586H43.9402C45.6215 93.5586 46.6838 94.1082 46.6838 95.6602C46.6838 96.801 46.0002 97.4199 45.3674 97.674C45.6769 97.7894 45.8247 97.9834 45.9956 98.3714L47.2519 101.161H45.7647L44.6654 98.7594C44.5037 98.4038 44.3097 98.1636 43.9125 98.1636H42.7809V101.157L42.7855 101.161ZM43.9264 97.0781C44.7485 97.0781 45.2658 96.6347 45.2658 95.7618C45.2658 94.7918 44.67 94.6625 43.5846 94.6625H42.7855V97.0735H43.931L43.9264 97.0781Z" fill="#181717"/>
<path d="M52.1948 96.8291C52.1948 98.5889 50.0101 98.8198 48.9616 98.8291C49.0078 99.5727 49.4281 100.293 50.4027 100.293C51.0771 100.293 51.5667 99.9838 51.8438 99.7898L52.2687 100.695C52.084 100.857 51.3311 101.337 50.2549 101.337C48.3704 101.337 47.5898 100.127 47.5898 98.4088C47.5898 96.6906 48.5598 95.2402 50.3796 95.2402C51.502 95.2402 52.1994 95.813 52.1994 96.8291H52.1948ZM50.2965 96.2102C49.382 96.2102 48.9478 97.1016 48.9155 97.9469C49.5344 97.9607 50.9847 97.7621 50.9847 96.8845C50.9847 96.4596 50.7122 96.2102 50.2965 96.2102Z" fill="#181717"/>
<path d="M53.0718 99.7766C53.4505 100.017 54.1249 100.326 54.7068 100.326C55.1872 100.326 55.5752 100.109 55.5752 99.5965C55.5752 99.0838 55.141 98.9222 54.6052 98.7605C53.7692 98.5203 52.8316 98.2478 52.8316 97.0561C52.8316 95.8645 53.8154 95.2363 54.9239 95.2363C55.783 95.2363 56.522 95.5781 56.9932 96.0492L56.3419 96.8483C55.9077 96.4696 55.4274 96.2294 54.947 96.2294C54.5359 96.2294 54.148 96.4372 54.148 96.8945C54.148 97.421 54.6283 97.5688 55.1641 97.7305C56.0001 97.9938 56.9239 98.3263 56.9239 99.5041C56.9239 100.682 56.0417 101.333 54.7623 101.333C53.7784 101.333 52.9655 100.978 52.6699 100.751L53.0718 99.7813V99.7766Z" fill="#181717"/>
<path d="M59.304 103.559H57.9414V95.6151C58.8005 95.3518 59.6458 95.2363 60.2277 95.2363C62.0568 95.2363 62.9159 96.2525 62.9159 98.2293C62.9159 100.206 61.9921 101.329 60.491 101.329C60.0476 101.329 59.5996 101.181 59.304 100.996V103.555V103.559ZM59.9783 96.3264C59.7705 96.3264 59.5441 96.3495 59.304 96.4049V99.9244C59.5996 100.118 59.9783 100.211 60.2739 100.211C61.2439 100.211 61.5441 99.2501 61.5441 98.3356C61.5441 96.9961 61.0314 96.3217 59.9783 96.3217V96.3264Z" fill="#181717"/>
<path d="M66.4104 95.2402C67.2557 95.2402 68.9046 95.5035 68.9046 98.1316C68.9046 100.326 67.7407 101.332 66.2303 101.332C64.72 101.332 63.75 100.349 63.75 98.2794C63.75 95.9007 65.2373 95.2402 66.4151 95.2402H66.4104ZM67.5097 98.3118C67.5097 97.0324 67.2141 96.2425 66.3458 96.2425C65.4774 96.2425 65.1357 97.0185 65.1357 98.1178C65.1357 99.2171 65.3065 100.326 66.3227 100.326C67.1587 100.326 67.5097 99.5034 67.5097 98.3118Z" fill="#181717"/>
<path d="M70.0143 101.162V96.4042L69.9219 95.4111H71.0673L71.1828 96.1317C71.5847 95.5589 72.1897 95.2402 72.9426 95.2402C74.0834 95.2402 74.7624 95.8823 74.7624 97.231V101.162H73.3999V97.5266C73.3999 96.8291 73.2751 96.2933 72.5408 96.2933C71.8525 96.2933 71.3768 96.8522 71.3768 97.448V101.162H70.0143Z" fill="#181717"/>
<path d="M76.06 99.7766C76.4388 100.017 77.1131 100.326 77.6951 100.326C78.1755 100.326 78.5634 100.109 78.5634 99.5965C78.5634 99.0838 78.1293 98.9222 77.5935 98.7605C76.7575 98.5203 75.8199 98.2478 75.8199 97.0561C75.8199 95.8645 76.8037 95.2363 77.9122 95.2363C78.7713 95.2363 79.5103 95.5781 79.9814 96.0492L79.3302 96.8483C78.896 96.4696 78.4156 96.2294 77.9353 96.2294C77.5242 96.2294 77.1362 96.4372 77.1362 96.8945C77.1362 97.421 77.6166 97.5688 78.1524 97.7305C78.9884 97.9938 79.9121 98.3263 79.9121 99.5041C79.9121 100.682 79.03 101.333 77.7505 101.333C76.7667 101.333 75.9538 100.978 75.6582 100.751L76.06 99.7813V99.7766Z" fill="#181717"/>
<path d="M85.6533 100.062L85.7549 101.162H84.5771L84.4986 100.557L84.4524 100.543C84.0967 101.055 83.5148 101.309 82.8866 101.309C81.2746 101.309 80.6465 100.169 80.6465 98.5335C80.6465 96.5197 81.6534 95.2402 83.6164 95.2402C83.9951 95.2402 84.8265 95.3326 85.6533 95.6421V100.067V100.062ZM84.3046 96.3811C84.1337 96.3026 83.8011 96.2333 83.4455 96.2333C82.3601 96.2333 81.9952 97.2494 81.9952 98.4873C81.9952 99.4341 82.2261 100.339 83.1822 100.339C83.8889 100.339 84.3046 99.836 84.3046 99.3464V96.3857V96.3811Z" fill="#181717"/>
<path d="M87.0801 93.2168H88.4426V95.7202C88.7613 95.4246 89.2555 95.2398 89.7913 95.2398C91.2093 95.2398 92.0684 96.2237 92.0684 98.0065C92.0684 100.237 91.0846 101.332 89.3572 101.332C88.5581 101.332 87.5604 101.115 87.0847 100.842V93.2168H87.0801ZM88.438 100.131C88.6551 100.247 89.0338 100.362 89.408 100.362C90.207 100.362 90.7105 99.7571 90.7105 98.1913C90.7105 97.2998 90.4934 96.2375 89.4311 96.2375C88.9045 96.2375 88.438 96.5793 88.438 97.0966V100.136V100.131Z" fill="#181717"/>
<path d="M94.5442 93.2253V99.2852C94.5442 99.9919 94.692 100.255 95.1631 100.255C95.3941 100.255 95.6435 100.177 95.8837 100.07L96.1793 100.985C95.8698 101.179 95.3109 101.327 94.8167 101.327C93.274 101.327 93.1816 100.421 93.1816 99.567V93.2207H94.5442V93.2253Z" fill="#181717"/>
<path d="M101.015 96.8291C101.015 98.5889 98.8307 98.8198 97.7822 98.8291C97.8284 99.5727 98.2487 100.293 99.2233 100.293C99.8976 100.293 100.387 99.9838 100.664 99.7898L101.089 100.695C100.905 100.857 100.152 101.337 99.0755 101.337C97.191 101.337 96.4104 100.127 96.4104 98.4088C96.4104 96.6906 97.3804 95.2402 99.2002 95.2402C100.318 95.2402 101.015 95.813 101.015 96.8291ZM99.117 96.2102C98.2025 96.2102 97.7683 97.1016 97.736 97.9469C98.3549 97.9607 99.8052 97.7621 99.8052 96.8845C99.8052 96.4596 99.5327 96.2102 99.117 96.2102Z" fill="#181717"/>
<path d="M66.1611 52.8127C66.1611 54.0412 65.1597 55.0427 63.9311 55.0427H35.3023C34.0709 55.0427 33.0694 54.0412 33.0694 52.8127V31.9219H30.1582V52.8127C30.1582 55.6482 32.4668 57.9539 35.3023 57.9539H35.8263V59.13C35.8263 59.6104 36.2164 60.0005 36.6968 60.0005H39.0083C39.4886 60.0005 39.8787 59.6104 39.8787 59.13V57.9539H59.3547V59.13C59.3547 59.6104 59.7448 60.0005 60.2252 60.0005H62.5367C63.017 60.0005 63.4071 59.6104 63.4071 59.13V57.9539H63.9311C66.7666 57.9539 69.0723 55.6482 69.0723 52.8127V44.5973L66.1611 46.8622V52.8127Z" fill="#181717"/>
<path d="M63.9311 10.1921H56.1233C55.9573 9.75255 55.5352 9.43522 55.0345 9.43522H54.854V2.32897H55.0345C55.6779 2.32897 56.199 1.80786 56.199 1.16448C56.199 0.521106 55.6779 0 55.0345 0H44.196C43.5556 0 43.0316 0.521106 43.0316 1.16448C43.0316 1.80786 43.5556 2.32897 44.196 2.32897H44.3795V9.43522H44.196C43.6982 9.43522 43.2761 9.75255 43.1102 10.1921H35.3023C32.4668 10.1921 30.1582 12.5007 30.1582 15.3362V24.8879H30.3765L33.0694 22.7918V15.3362C33.0694 14.1048 34.0709 13.1033 35.3023 13.1033H63.9311C65.1597 13.1033 66.1611 14.1048 66.1611 15.3362V37.5255H69.0723V15.3362C69.0723 12.5007 66.7666 10.1921 63.9311 10.1921ZM53.6895 9.43522H45.5439V2.32897H53.6895V9.43522Z" fill="#181717"/>
<path d="M47.9942 21.0527H36.2533L30.5764 25.469H24.131L20 31.3409H35.0888L41.0568 26.1968L39.0189 25.6641L33.9127 28.8868C33.9127 28.8868 38.0961 23.7718 38.3406 23.7718H46.5881L47.9942 21.0556V21.0527Z" fill="#181717"/>
<path d="M44.1429 35.1266C44.1429 34.4159 43.5674 33.8398 42.8576 33.8398C42.1477 33.8398 41.5723 34.4159 41.5723 35.1266V42.2823C41.5723 42.993 42.1477 43.5691 42.8576 43.5691C43.5674 43.5691 44.1429 42.993 44.1429 42.2823V35.1266Z" fill="#181717"/>
<path d="M47.2737 35.3453C47.2737 34.6347 46.6983 34.0586 45.9884 34.0586C45.2786 34.0586 44.7031 34.6347 44.7031 35.3453V42.2828C44.7031 42.9934 45.2786 43.5695 45.9884 43.5695C46.6983 43.5695 47.2737 42.9934 47.2737 42.2828V35.3453Z" fill="#181717"/>
<path d="M41.4797 31.3463L38.8611 35.8819C38.5862 36.3581 38.7493 36.967 39.2255 37.242L39.228 37.2434C39.7043 37.5183 40.3132 37.3552 40.5881 36.879L43.2067 32.3434C43.4817 31.8672 43.3185 31.2583 42.8423 30.9833L42.8398 30.9819C42.3636 30.7069 41.7547 30.8701 41.4797 31.3463Z" fill="#181717"/>
<path d="M45.8211 32.3404L48.4397 36.876C48.7146 37.3522 49.3235 37.5154 49.7997 37.2405L49.8023 37.239C50.2785 36.9641 50.4416 36.3552 50.1667 35.8789L47.5481 31.3433C47.2731 30.8671 46.6642 30.704 46.188 30.9789L46.1855 30.9804C45.7093 31.2553 45.5461 31.8642 45.8211 32.3404Z" fill="#181717"/>
<path d="M46.4223 30.7656H42.4223C42.12 30.7656 41.875 31.0107 41.875 31.3129V37.1499C41.875 37.4522 42.12 37.6972 42.4223 37.6972H46.4223C46.7246 37.6972 46.9696 37.4522 46.9696 37.1499V31.3129C46.9696 31.0107 46.7246 30.7656 46.4223 30.7656Z" fill="#181717"/>
<path d="M44.4228 30.1303C45.8071 30.1303 46.9294 29.0081 46.9294 27.6237C46.9294 26.2394 45.8071 25.1172 44.4228 25.1172C43.0385 25.1172 41.9163 26.2394 41.9163 27.6237C41.9163 29.0081 43.0385 30.1303 44.4228 30.1303Z" fill="#181717"/>
<path d="M53.7033 35.1266C53.7033 34.4159 53.1278 33.8398 52.418 33.8398C51.7081 33.8398 51.1327 34.4159 51.1327 35.1266V42.2823C51.1327 42.993 51.7081 43.5691 52.418 43.5691C53.1278 43.5691 53.7033 42.993 53.7033 42.2823V35.1266Z" fill="#181717"/>
<path d="M56.8322 35.3453C56.8322 34.6347 56.2567 34.0586 55.5469 34.0586C54.837 34.0586 54.2616 34.6347 54.2616 35.3453V42.2828C54.2616 42.9934 54.837 43.5695 55.5469 43.5695C56.2567 43.5695 56.8322 42.9934 56.8322 42.2828V35.3453Z" fill="#181717"/>
<path d="M50.9349 31.3463L48.3163 35.8819C48.0414 36.3581 48.2045 36.967 48.6807 37.242L48.6832 37.2434C49.1595 37.5183 49.7684 37.3552 50.0433 36.879L52.6619 32.3434C52.9369 31.8672 52.7737 31.2583 52.2975 30.9833L52.295 30.9819C51.8188 30.7069 51.2099 30.8701 50.9349 31.3463Z" fill="#181717"/>
<path d="M55.2761 32.3404L57.8948 36.876C58.1697 37.3522 58.7786 37.5154 59.2548 37.2405L59.2573 37.239C59.7335 36.9641 59.8967 36.3551 59.6218 35.8789L57.0031 31.3433C56.7282 30.8671 56.1193 30.704 55.6431 30.9789L55.6406 30.9804C55.1644 31.2553 55.0012 31.8642 55.2761 32.3404Z" fill="#181717"/>
<path d="M54.9546 27.2634L56.927 29.6819C57.2014 30.0183 57.696 30.069 58.0318 29.7951C58.3676 29.5213 58.4174 29.0266 58.143 28.6901L56.1706 26.2717C55.8962 25.9353 55.4016 25.8846 55.0658 26.1584C54.73 26.4323 54.6802 26.927 54.9546 27.2634Z" fill="#181717"/>
<path d="M51.2543 26.9303L49.821 28.6877C49.5466 29.0242 49.5964 29.5189 49.9322 29.7927C50.268 30.0666 50.7626 30.0159 51.037 29.6795L52.4703 27.922C52.7447 27.5856 52.6949 27.0909 52.3591 26.817C52.0233 26.5432 51.5287 26.5939 51.2543 26.9303Z" fill="#181717"/>
<path d="M55.9829 30.7656H51.9829C51.6806 30.7656 51.4355 31.0107 51.4355 31.3129V37.1499C51.4355 37.4522 51.6806 37.6972 51.9829 37.6972H55.9829C56.2851 37.6972 56.5302 37.4522 56.5302 37.1499V31.3129C56.5302 31.0107 56.2851 30.7656 55.9829 30.7656Z" fill="#181717"/>
<path d="M53.9821 30.0775C55.6237 30.0775 56.9544 28.7467 56.9544 27.1052C56.9544 25.4636 55.6237 24.1328 53.9821 24.1328C52.3405 24.1328 51.0098 25.4636 51.0098 27.1052C51.0098 28.7467 52.3405 30.0775 53.9821 30.0775Z" fill="#181717"/>
<path d="M55.7113 33.0742H52.2499L49.6152 39.7584H53.982H58.3489L55.7113 33.0742Z" fill="#181717"/>
<path d="M80.0725 38.1074L77.4058 43.9793H68.9138L66.1598 46.122L63.237 48.3956H51.4961L52.9022 45.6766H61.1497C61.3913 45.6766 65.3447 41.071 65.467 40.9255L60.4713 43.7843L58.4335 43.2515L64.4015 38.1074H80.0725Z" fill="#181717"/>
</svg>
