<svg width="39" height="30" viewBox="0 0 39 30" fill="none" xmlns="http://www.w3.org/2000/svg">
<path d="M39 3.21454V26.7855C38.9997 27.6379 38.6571 28.4554 38.0477 29.0581C37.4382 29.6609 36.6116 29.9997 35.7497 30H3.2503C2.38837 29.9997 1.56183 29.6609 0.952349 29.0581C0.342869 28.4554 0.000323004 27.6379 0 26.7855V3.21454C0.000323004 2.36209 0.342869 1.54465 0.952349 0.941871C1.56183 0.339096 2.38837 0.00031945 3.2503 0H35.7497C36.6116 0.00031945 37.4382 0.339096 38.0477 0.941871C38.6571 1.54465 38.9997 2.36209 39 3.21454Z" fill="#1434CB"/>
<path d="M32.6622 13.4988C32.6622 13.4988 33.1765 15.9902 33.2923 16.512H31.0316L32.115 13.5988C32.1016 13.6193 32.3381 12.9889 32.4733 12.6008L32.6622 13.4988ZM11.1581 20.1882L15.437 9.7961H12.5596L9.89913 16.8941L9.60786 15.455L8.6597 10.6736C8.5037 10.0106 8.02353 9.82261 7.42758 9.7961H3.04753L3 10.0034C4.00309 10.2468 4.96529 10.6325 5.85666 11.1484L8.28068 20.1882H11.1581ZM17.5502 20.2015L19.2564 9.7961H16.535L14.8361 20.2015H17.5502ZM27.022 16.8001C27.0354 15.6153 26.3042 14.7113 24.7406 13.9677C23.7864 13.4916 23.2038 13.1709 23.2038 12.6816C23.2172 12.2392 23.6986 11.7836 24.7674 11.7836C25.4636 11.7642 26.1553 11.8993 26.7917 12.179L27.0354 12.2923L27.4084 10.042C26.6303 9.74741 25.804 9.59745 24.9709 9.59963C22.2825 9.59963 20.3935 11.0195 20.3801 13.0408C20.3593 14.5341 21.734 15.3646 22.7639 15.866C23.8132 16.3746 24.1727 16.7097 24.1727 17.1581C24.1593 17.8548 23.3196 18.1754 22.5408 18.1754C21.4574 18.1754 20.8748 18.0078 19.9876 17.6197L19.6293 17.4522L19.2503 19.7893C19.8865 20.0773 21.065 20.3317 22.2837 20.3449C25.1403 20.3509 27.0025 18.9516 27.0233 16.7965L27.022 16.8001ZM36.5816 20.2015L34.3879 9.7961H32.282C31.6324 9.7961 31.1376 9.98412 30.8598 10.6603L26.8173 20.2027H29.6739C29.6739 20.2027 30.1407 18.9166 30.2431 18.643H33.7371C33.8188 19.0118 34.0625 20.2027 34.0625 20.2027L36.5816 20.2015Z" fill="white"/>
</svg>
