<svg width="120" height="16" viewBox="0 0 120 16" fill="none" xmlns="http://www.w3.org/2000/svg">
<path d="M32.1837 0H25.3291V15.9913H27.7072V2.37814H30.6449L37.01 15.9913H43.8384V0H41.4602V13.6219H38.54L32.1837 0Z" fill="white"/>
<path d="M95.5016 2.37814V0H81.9497V15.9913H95.5016V13.6131H84.3278V9.18907H92.5202V6.81093H84.3278V2.37814H95.5016Z" fill="white"/>
<path d="M2.54426 0L0 15.9913H2.3694L4.5377 2.37814H10.2994L10.3169 2.4918L12.459 15.9913H14.8371L12.2929 0H2.54426Z" fill="white"/>
<path d="M63.4577 0H54.3298V16H63.4577C67.8643 16 71.4577 12.4153 71.4577 8C71.4577 3.5847 67.873 0 63.4577 0ZM63.4577 13.6131H56.708V2.37814H63.4577C66.5528 2.37814 69.0796 4.89617 69.0796 8C69.0796 11.1038 66.5615 13.6219 63.4577 13.6219V13.6131Z" fill="white"/>
<path d="M119.554 2.37814V0H105.993V7.21311L117.167 10.518V13.6131H105.993V15.9913H119.554V8.77814L108.38 5.47322V2.37814H119.554Z" fill="white"/>
</svg>
