<svg width="19" height="20" viewBox="0 0 19 20" fill="none" xmlns="http://www.w3.org/2000/svg">
<path d="M11.6418 13.1591L13.8807 10.8085C14.3119 10.3565 14.3119 9.64482 13.8807 9.19287L11.6418 6.84222C11.2106 6.39028 11.2106 5.67859 11.6418 5.22664L14.5223 2.20196C14.9015 1.80326 14.8859 1.17339 14.4885 0.794172C14.0898 0.414952 13.46 0.430536 13.0807 0.827939L9.49762 4.59028L5.91321 0.827939C5.53399 0.429237 4.90412 0.413653 4.50542 0.794172C4.10671 1.17339 4.09243 1.80326 4.47165 2.20196L7.35217 5.22664C7.78334 5.67859 7.78334 6.39028 7.35217 6.84222L5.11321 9.19287C4.68204 9.64482 4.68204 10.3565 5.11321 10.8085L7.35217 13.1591C7.78334 13.6111 7.78334 14.3227 7.35217 14.7747L4.47165 17.7994C4.09243 18.1981 4.10801 18.8279 4.50542 19.2072C4.69762 19.3903 4.94568 19.4825 5.19243 19.4825C5.45477 19.4825 5.7184 19.3786 5.91321 19.1734L9.49633 15.4111L13.0794 19.1734C13.2755 19.3786 13.5379 19.4825 13.8002 19.4825C14.047 19.4825 14.2937 19.3916 14.4872 19.2072C14.8859 18.8279 14.9002 18.1981 14.521 17.7994L11.6405 14.7747C11.2093 14.3227 11.2093 13.6111 11.6405 13.1591H11.6418ZM7.86256 9.19287L9.49633 7.47859L11.1301 9.19287C11.5613 9.64482 11.5613 10.3565 11.1301 10.8085L9.49633 12.524L7.86256 10.8085C7.43139 10.3565 7.43139 9.64482 7.86256 9.19287Z" fill="white"/>
<path d="M16.3987 13.1912L18.6688 10.808C19.1 10.3561 19.1 9.6444 18.6688 9.19245L16.3987 6.80933C15.974 6.36388 15.9662 5.66648 16.3818 5.21193L18.0662 3.36518C18.4234 2.97297 18.4403 2.36128 18.0727 1.97946C17.6701 1.56128 17.0039 1.57557 16.6182 1.99765L13.6598 5.2418C13.2455 5.69635 13.2533 6.39375 13.6766 6.8392L15.9182 9.19245C16.3494 9.6444 16.3494 10.3561 15.9182 10.808L13.6766 13.1613C13.252 13.6067 13.2442 14.3041 13.6598 14.7587L16.6182 18.0028C16.8143 18.2184 17.0844 18.3275 17.3546 18.3275C17.5935 18.3275 17.8338 18.2418 18.026 18.0678C18.4325 17.6976 18.4611 17.0678 18.0909 16.6613L16.3831 14.7899C15.9688 14.3353 15.9766 13.6379 16.4 13.1925L16.3987 13.1912Z" fill="white"/>
<path d="M3.07403 9.19246L5.31558 6.83921C5.74026 6.39376 5.74805 5.69636 5.33247 5.24181L2.37532 1.99765C1.98961 1.57558 1.32468 1.55999 0.920779 1.97947C0.553247 2.36129 0.568831 2.97298 0.925974 3.36519L2.61039 5.21194C3.02468 5.66649 3.01688 6.36389 2.59351 6.80934L0.323377 9.19246C-0.107792 9.64441 -0.107792 10.3561 0.323377 10.808L2.59351 13.1912C3.01818 13.6366 3.02597 14.334 2.61039 14.7886L0.902597 16.66C0.532468 17.0665 0.561039 17.6964 0.967532 18.0665C1.15844 18.2405 1.3987 18.3262 1.63896 18.3262C1.90909 18.3262 2.17922 18.2171 2.37532 18.0016L5.33377 14.7574C5.74805 14.3028 5.74026 13.6054 5.31688 13.16L3.07532 10.8067C2.64416 10.3548 2.64416 9.64311 3.07532 9.19116L3.07403 9.19246Z" fill="white"/>
<path d="M8.45979 0H10.5325C11.0481 0 11.3117 0.616883 10.9572 0.98961L9.92083 2.07792C9.68966 2.32078 9.30394 2.32078 9.07277 2.07792L8.03641 0.98961C7.68057 0.616883 7.9442 0 8.45979 0Z" fill="white"/>
<path d="M8.45972 19.9998H10.5324C11.048 19.9998 11.3117 19.3829 10.9571 19.0102L9.92076 17.9219C9.68959 17.679 9.30388 17.679 9.07271 17.9219L8.03635 19.0102C7.6805 19.3829 7.94544 19.9998 8.46102 19.9998H8.45972Z" fill="white"/>
</svg>
