<svg width="69" height="59" viewBox="0 0 69 59" fill="none" xmlns="http://www.w3.org/2000/svg">
<path d="M7.76017 42.2431L8.49459 45.8514L10.7079 46.1947L11.0883 48.0594L1.05348 46.3609L0.709964 44.67L9.28639 39.2047L9.66684 41.0694L7.76156 42.2469L7.76017 42.2431ZM6.34282 43.1133L3.2453 45.0273L6.84555 45.591L6.34282 43.1133Z" fill="white"/>
<path d="M0 35.4373L0.307317 33.5892L7.47458 30.6584L0.970206 29.5706L1.25165 27.8667L10.619 29.4369L10.3117 31.2851L3.15836 34.2065L9.64982 35.2946L9.36872 37.0114L0.00139485 35.4412L0 35.4373Z" fill="white"/>
<path d="M3.48447 21.7212L5.05384 19.0416C6.37603 16.7823 8.8595 15.6305 11.6094 17.2509C14.3593 18.8712 14.5678 21.6035 13.2417 23.8641L11.6724 26.5437L3.48063 21.7226L3.48447 21.7212ZM11.782 23.1913C12.6063 21.7871 12.6644 20.0422 10.6653 18.8639C8.66622 17.6855 7.16302 18.5825 6.34255 19.9853L5.77415 20.9573L11.216 24.1581L11.7844 23.1861L11.782 23.1913Z" fill="white"/>
<path d="M11.4758 10.4475L16.3372 6.3667L17.3568 7.58635L13.9107 10.4798L15.2558 12.0822L18.0195 9.76235L19.0509 10.9908L16.2872 13.3106L17.9713 15.3213L21.5336 12.3292L22.565 13.5576L17.5912 17.7356L11.4835 10.4447L11.4758 10.4475Z" fill="white"/>
<path d="M23.3549 9.74551L24.6945 8.67272C25.2549 9.67992 26.3585 10.0769 27.3416 9.68603C28.2609 9.32266 28.691 8.64017 28.4264 7.96986C27.6701 6.06282 23.4187 8.98675 22.1471 5.77757C21.5861 4.36138 22.5116 2.82909 24.2503 2.1385C25.9251 1.47538 27.6055 1.84628 28.4122 3.07772L27.1249 4.31877C26.6091 3.53048 25.7487 3.24134 24.8294 3.60471C23.987 3.94028 23.612 4.51138 23.8487 5.10473C24.4819 6.70809 28.7261 3.6562 30.1486 7.24602C30.7693 8.81475 29.8462 10.3897 27.8569 11.1797C26.1168 11.8665 24.2017 11.2672 23.3511 9.74691L23.3549 9.74551Z" fill="white"/>
<path d="M40.529 0L46.7273 1.38148L46.3862 2.93282L41.988 1.9529L41.5386 3.99619L45.062 4.77923L44.7175 6.34489L41.1941 5.56185L40.6318 8.12051L45.1716 9.13184L44.827 10.6975L38.4833 9.28601L40.5266 0.0052368L40.529 0Z" fill="white"/>
<path d="M51.6301 14.9463L51.9071 10.8455L48.1244 12.4504L46.5321 11.3163L52.0281 8.98642L52.3644 3.81502L53.9448 4.94041L53.7294 8.25275L56.7776 6.95735L58.3698 8.09151L53.5997 10.1237L53.2119 16.0755L51.6315 14.9501L51.6301 14.9463Z" fill="white"/>
<path d="M62.7036 12.9081L64.6863 16.1862C65.6837 17.8361 65.3517 19.4843 63.8412 20.397C62.346 21.3041 60.7302 20.8358 59.7313 19.1821L58.7042 17.4863L55.5383 19.4033L54.5827 17.821L62.6983 12.9056L62.7036 12.9081ZM61.0056 18.2287C61.4827 19.0179 62.1903 19.2449 62.8845 18.8237C63.5927 18.3931 63.7206 17.6677 63.2421 16.8746L62.3001 15.3178L60.0636 16.6719L61.0056 18.2287Z" fill="white"/>
<path d="M68.3275 25.0234L69 31.3487L67.4231 31.5149L66.9468 27.0252L64.8673 27.2429L65.25 30.8392L63.6602 31.0058L63.2775 27.4094L60.6749 27.6815L61.1655 32.3184L59.5756 32.485L58.8889 26.0125L68.3275 25.0234Z" fill="white"/>
<path d="M57.0716 40.039L61.5366 39.4538L62.1096 38.0752L58.5153 36.5692L59.227 34.8662L67.9938 38.5301L66.584 41.9137C65.8688 43.631 64.3897 44.319 62.8127 43.6581C61.8236 43.2415 61.1985 42.3796 61.1333 41.3367L56.2447 42.0232L57.0692 40.0443L57.0716 40.039ZM63.5782 38.6883L62.9929 40.093C62.6286 40.9693 62.8301 41.6451 63.5317 41.9395C64.2334 42.2339 64.8668 41.9087 65.2311 41.0324L65.8163 39.6277L63.5743 38.6897L63.5782 38.6883Z" fill="white"/>
<path d="M61.1238 50.2858L59.812 51.5792L53.1417 44.7967L54.4534 43.5033L61.1238 50.2858Z" fill="white"/>
<path d="M54.586 55.5526L48.7424 58.0257L48.1207 56.5619L52.2664 54.8081L51.4501 52.8792L48.1298 54.2863L47.5039 52.8108L50.8243 51.4038L49.8012 48.9883L45.5201 50.7999L44.8942 49.3245L50.8732 46.7936L54.5821 55.554L54.586 55.5526Z" fill="white"/>
<path d="M40.7272 59L38.8974 58.6005L36.3134 51.2784L34.9169 57.7305L33.2327 57.361L35.2421 48.0707L37.0718 48.4702L39.6451 55.7744L41.038 49.3367L42.7352 49.7059L40.7258 58.9962L40.7272 59Z" fill="white"/>
<path d="M29.6021 50.0871C27.0869 52.0862 24.4017 51.3392 22.8641 49.3973C21.4469 47.6077 21.4183 45.5634 22.7144 44.119L24.1534 45.3217C23.362 46.2656 23.3498 47.454 24.1091 48.411C25.1039 49.6701 26.7739 49.9403 28.4388 48.6147C30.1037 47.2892 30.2194 45.6192 29.2141 44.3552C28.4454 43.3843 27.3833 43.1377 26.3603 43.6344L25.5227 41.9222C27.2639 41.1306 29.1082 41.6424 30.4679 43.357C32.0295 45.3294 32.1211 48.0866 29.6007 50.0832L29.6021 50.0871Z" fill="white"/>
<path d="M17.9437 38.2766L17.8582 31.9172L19.4455 31.8995L19.509 36.4125L21.5974 36.3875L21.5477 32.775L23.1479 32.757L23.1977 36.3695L25.8145 36.3404L25.7497 31.6799L27.3499 31.6619L27.4382 38.1726L17.9427 38.2856L17.9437 38.2766Z" fill="white"/>
<path d="M25.5536 28.2989L26.2796 26.7431C27.2246 27.3977 28.3916 27.2624 29.1005 26.4746C29.7631 25.7384 29.8464 24.9377 29.314 24.4514C27.7941 23.0734 25.2789 27.5887 22.7197 25.2724C21.5905 24.2535 21.7404 22.4623 22.9915 21.0733C24.2 19.7346 25.8698 19.3214 27.1391 20.0676L26.5341 21.7536C25.7216 21.273 24.8244 21.3977 24.1619 22.1339C23.5545 22.8066 23.4744 23.4842 23.9471 23.9138C25.2259 25.07 27.6749 20.4438 30.5372 23.0334C31.7857 24.1657 31.6599 25.9874 30.2269 27.5815C28.972 28.9719 26.992 29.2841 25.5574 28.2975L25.5536 28.2989Z" fill="white"/>
</svg>
