<svg width="20" height="14" viewBox="0 0 20 14" fill="none" xmlns="http://www.w3.org/2000/svg">
<path d="M5.5 8C6.88071 8 8 6.88071 8 5.5C8 4.11929 6.88071 3 5.5 3C4.11929 3 3 4.11929 3 5.5C3 6.88071 4.11929 8 5.5 8Z" fill="#A18F63"/>
<path d="M15.205 1H10C9.73478 1 9.48043 1.10536 9.29289 1.29289C9.10536 1.48043 9 1.73478 9 2V9H2V0H0V14H2V11H18V14H20V5.795C19.9987 4.52369 19.4931 3.30483 18.5941 2.40588C17.6952 1.50693 16.4763 1.00132 15.205 1ZM11 9V3H15.205C15.9459 3.00132 16.656 3.29622 17.1799 3.8201C17.7038 4.34398 17.9987 5.05413 18 5.795V9H11Z" fill="#A18F63"/>
</svg>
