<svg width="16" height="16" viewBox="0 0 16 16" fill="none" xmlns="http://www.w3.org/2000/svg">
<path fill-rule="evenodd" clip-rule="evenodd" d="M7.84181 1.32837C7.6632 1.59405 7.45929 2.0093 7.15268 2.6374L5.476 6.07256C5.35452 6.33388 5.22142 6.58963 5.07711 6.83907C4.9506 7.04372 4.78539 7.26177 4.5264 7.392C4.29317 7.51024 4.02858 7.55191 3.7703 7.51107C3.47783 7.46493 3.25606 7.29898 3.08191 7.13823C2.91298 6.98195 2.7247 6.76763 2.51037 6.52353L2.49176 6.5027C2.03929 5.98698 1.72747 5.63274 1.48561 5.40726C1.41088 5.33354 1.32856 5.26793 1.24002 5.21153H1.23853C1.20678 5.22475 1.17851 5.24513 1.15593 5.27107C1.15742 5.27256 1.11425 5.36037 1.11649 5.70716C1.11946 6.07033 1.16635 6.57488 1.23481 7.29749L1.40523 9.10958C1.54663 10.6158 1.64933 11.6986 1.82199 12.5194C1.99241 13.3306 2.21641 13.8099 2.54981 14.1514C2.87577 14.4848 3.29401 14.6753 3.99133 14.7766C4.71097 14.8822 5.65238 14.8837 6.98821 14.8837H9.01243C10.3483 14.8837 11.2897 14.8822 12.0093 14.7773C12.7066 14.6753 13.1256 14.4848 13.4508 14.1514C13.7842 13.8099 14.009 13.3306 14.1787 12.5194C14.3513 11.6986 14.454 10.6158 14.5954 9.10958L14.7666 7.29749C14.8336 6.57488 14.8812 6.06958 14.8842 5.70716C14.8864 5.36112 14.8432 5.27256 14.8447 5.27107L14.8492 5.27628C14.826 5.24759 14.7961 5.22509 14.7621 5.21079H14.7614C14.713 5.23833 14.6349 5.29563 14.515 5.40726C14.2732 5.63274 13.9614 5.98698 13.5089 6.5027L13.4903 6.52353C13.276 6.76763 13.0877 6.9827 12.9187 7.13823C12.7446 7.29898 12.5228 7.46567 12.2304 7.51181C11.972 7.55243 11.7074 7.5105 11.4742 7.392C11.2153 7.26177 11.0501 7.04372 10.9235 6.83907C10.8007 6.63814 10.672 6.37544 10.5246 6.07256L8.84797 2.6374C8.54136 2.0093 8.33745 1.59405 8.15884 1.32837C8.11411 1.25696 8.06088 1.19124 8.00032 1.13265C7.97056 1.16019 7.91846 1.216 7.84181 1.32837ZM8.03307 1.10958L8.02563 1.11256C8.03059 1.10958 8.03307 1.10859 8.03307 1.10958ZM6.91603 0.704744C7.14078 0.371349 7.47418 0 8.00032 0C8.52573 0 8.85987 0.372093 9.08462 0.704744C9.31235 1.04335 9.54975 1.53079 9.8318 2.10828L11.5159 5.55907C11.6789 5.89247 11.7838 6.10605 11.8746 6.25414C11.904 6.30582 11.9395 6.35379 11.9803 6.39702C12.0036 6.40794 12.0254 6.41216 12.0458 6.40967C12.0871 6.38329 12.1258 6.35287 12.1611 6.31888C12.2817 6.20726 12.432 6.03684 12.6702 5.76595L12.6918 5.7414C13.1182 5.25619 13.4657 4.85953 13.753 4.59163C13.8929 4.45529 14.0485 4.33612 14.2166 4.23665C14.3818 4.14437 14.5887 4.0707 14.8261 4.09079C15.1781 4.12205 15.4899 4.29991 15.7095 4.56484C15.9737 4.88409 16.0034 5.3306 15.9997 5.71609C15.9975 6.13284 15.9454 6.68577 15.8806 7.3734L15.7035 9.25023C15.5658 10.7133 15.4579 11.8586 15.2719 12.7487C15.0814 13.6551 14.7956 14.3732 14.2486 14.9313C13.6942 15.4992 13.0132 15.7581 12.1708 15.8817C11.3611 16 10.3379 16 9.05634 16H6.94431C5.6628 16 4.63952 16 3.82983 15.8809C2.9874 15.7581 2.30646 15.4992 1.75203 14.9313C1.20579 14.3732 0.919273 13.6551 0.729502 12.7487C0.542708 11.8586 0.434799 10.7133 0.297123 9.25023L0.120747 7.3734C0.056002 6.68577 0.00390815 6.13284 0.000187155 5.71609C-0.00278964 5.3306 0.0269783 4.88409 0.291169 4.56484C0.399511 4.43107 0.533436 4.32025 0.685113 4.23886C0.836789 4.15746 1.00317 4.10713 1.17453 4.09079C1.41119 4.0707 1.61882 4.14437 1.78403 4.23665C1.94627 4.32744 2.10106 4.4547 2.24767 4.59163C2.53493 4.85953 2.88321 5.25619 3.30889 5.7414L3.33122 5.76595C3.56936 6.03684 3.71895 6.20726 3.83951 6.31888C3.87511 6.35291 3.914 6.38333 3.9556 6.40967C3.97786 6.41035 3.99999 6.40603 4.02035 6.39702C4.06116 6.35379 4.09663 6.30582 4.12603 6.25414C4.21682 6.10605 4.32175 5.89247 4.48473 5.55907L6.1696 2.10828C6.45165 1.53005 6.6883 1.04335 6.91603 0.704744Z" fill="white"/>
</svg>
