<svg width="16" height="15" viewBox="0 0 16 15" fill="none" xmlns="http://www.w3.org/2000/svg">
<path d="M15.5312 6.36024L11.8415 9.51071L12.9689 14.2207C12.9987 14.3417 12.9916 14.4688 12.9485 14.5858C12.9053 14.7029 12.8281 14.8046 12.7266 14.8782C12.6251 14.9519 12.5038 14.994 12.3781 14.9994C12.2524 15.0048 12.1279 14.9732 12.0203 14.9085L7.87461 12.3836L3.72888 14.9078C3.62132 14.9724 3.49681 15.004 3.3711 14.9987C3.24538 14.9933 3.1241 14.9511 3.02259 14.8775C2.92107 14.8039 2.84388 14.7021 2.80076 14.5851C2.75764 14.468 2.75053 14.341 2.78034 14.2199L3.90768 9.50996L0.218048 6.35949C0.123975 6.27771 0.0561519 6.17044 0.0229509 6.05093C-0.01025 5.93142 -0.00737491 5.8049 0.0312213 5.68699C0.0698175 5.56908 0.142445 5.46494 0.240137 5.38743C0.33783 5.30992 0.45631 5.26243 0.58095 5.25083L5.42293 4.86077L7.28821 0.390101C7.33576 0.274763 7.41693 0.176061 7.52137 0.106583C7.62581 0.037105 7.74878 0 7.87461 0C8.00043 0 8.12341 0.037105 8.22785 0.106583C8.33229 0.176061 8.41346 0.274763 8.46101 0.390101L10.3263 4.86077L15.1683 5.25083C15.2931 5.26229 15.4118 5.30974 15.5096 5.3873C15.6075 5.46486 15.6802 5.56912 15.7188 5.68718C15.7574 5.80525 15.7602 5.93193 15.7269 6.05156C15.6935 6.17119 15.6255 6.27851 15.5312 6.36024Z" fill="#1D1E2E"/>
</svg>
