<svg width="38" height="68" viewBox="0 0 38 68" fill="none" xmlns="http://www.w3.org/2000/svg">
<path d="M25.6621 13.1143C25.6674 17.8447 23.0637 22.1057 18.8641 25.1513C14.6574 22.0581 12.044 17.7673 12.0385 13.0369C12.0331 8.30656 14.637 4.04554 18.8366 0.999954C23.043 4.09322 25.6566 8.38398 25.6621 13.1143Z" stroke="black" stroke-width="2" stroke-miterlimit="10" stroke-linecap="round" stroke-linejoin="round"/>
<path d="M33.217 29.6519C30.5865 33.3959 25.9952 35.4045 20.722 35.6169C18.8628 30.9705 19.0274 26.2101 21.6579 22.4661C24.2883 18.7221 28.8796 16.7137 34.1528 16.5011C36.012 21.1475 35.8476 25.9079 33.217 29.6519Z" stroke="black" stroke-width="2" stroke-miterlimit="10" stroke-linecap="round" stroke-linejoin="round"/>
<path d="M28.4427 49.2653C24.342 51.5708 19.3671 51.1752 14.663 48.6759C15.2807 43.1848 17.7193 38.6211 21.8202 36.3156C25.9209 34.0101 30.8958 34.4059 35.5999 36.905C34.9822 42.3962 32.5434 46.9598 28.4427 49.2653Z" stroke="black" stroke-width="2" stroke-miterlimit="10" stroke-linecap="round" stroke-linejoin="round"/>
<path d="M13.0177 63.6432C8.51836 63.8791 4.32241 61.4465 1.19522 57.3365C3.90741 52.92 7.8458 50.0608 12.3451 49.8248C16.8445 49.5889 21.0404 52.0215 24.1676 56.1315C21.4556 60.5479 17.5173 63.4073 13.0177 63.6432Z" stroke="black" stroke-width="2" stroke-miterlimit="10" stroke-linecap="round" stroke-linejoin="round"/>
</svg>
