<svg width="38" height="68" viewBox="0 0 38 68" fill="none" xmlns="http://www.w3.org/2000/svg">
<path d="M11.5433 13.1143C11.538 17.8447 14.1418 22.1057 18.3414 25.1513C22.548 22.0581 25.1614 17.7673 25.1669 13.0369C25.1723 8.30656 22.5684 4.04554 18.3688 0.999954C14.1624 4.09322 11.5488 8.38398 11.5433 13.1143Z" stroke="black" stroke-width="2" stroke-miterlimit="10" stroke-linecap="round" stroke-linejoin="round"/>
<path d="M3.98846 29.6519C6.61893 33.3959 11.2102 35.4045 16.4834 35.6169C18.3426 30.9705 18.178 26.2101 15.5475 22.4661C12.9171 18.7221 8.32576 16.7137 3.05264 16.5011C1.19341 21.1475 1.35781 25.9079 3.98846 29.6519Z" stroke="black" stroke-width="2" stroke-miterlimit="10" stroke-linecap="round" stroke-linejoin="round"/>
<path d="M8.76268 49.2653C12.8634 51.5708 17.8383 51.1752 22.5424 48.6759C21.9247 43.1848 19.4861 38.6211 15.3852 36.3156C11.2845 34.0101 6.30961 34.4059 1.60551 36.905C2.22318 42.3962 4.66198 46.9598 8.76268 49.2653Z" stroke="black" stroke-width="2" stroke-miterlimit="10" stroke-linecap="round" stroke-linejoin="round"/>
<path d="M24.1877 63.6432C28.687 63.8791 32.883 61.4465 36.0102 57.3365C33.298 52.92 29.3596 50.0608 24.8603 49.8248C20.3609 49.5889 16.165 52.0215 13.0378 56.1315C15.7498 60.5479 19.6881 63.4073 24.1877 63.6432Z" stroke="black" stroke-width="2" stroke-miterlimit="10" stroke-linecap="round" stroke-linejoin="round"/>
</svg>
