<svg width="20" height="20" viewBox="0 0 20 20" fill="none" xmlns="http://www.w3.org/2000/svg">
<path d="M7.0918 1.33301C7.02876 2.61816 7.18735 3.88572 7.56934 5.13086C8.10138 6.86495 9.02124 8.38623 10.3184 9.68262C11.6151 10.9786 13.1356 11.898 14.8691 12.4307C16.1168 12.814 17.3872 12.9715 18.6748 12.9072C18.1521 14.4786 17.2356 15.8055 15.9111 16.9053C14.2245 18.3057 12.3004 19 10.0996 19C8.83049 19 7.655 18.7589 6.5625 18.2832C5.44803 17.7979 4.4865 17.147 3.66992 16.3311C2.85356 15.5153 2.20212 14.5535 1.7168 13.4385C1.24103 12.3453 1.00005 11.1694 1 9.90039C1 7.69973 1.69368 5.78063 3.09277 4.10352C4.1923 2.7855 5.51948 1.86537 7.0918 1.33301Z" stroke="#A18F63" stroke-width="2"/>
</svg>
