<svg width="24" height="24" viewBox="0 0 24 24" fill="none" xmlns="http://www.w3.org/2000/svg">
<path d="M22 3.12761L21.9951 3.04949C21.9864 2.97244 21.9655 2.89702 21.9316 2.82683C21.8864 2.73305 21.8198 2.65043 21.7383 2.58562C21.6568 2.52088 21.5615 2.47478 21.46 2.45183C21.3587 2.42901 21.2535 2.42952 21.1523 2.45281L16.6719 3.48699V21.7419L21.4639 20.6364C21.6162 20.6012 21.7522 20.5146 21.8496 20.3923C21.9469 20.2698 21.9999 20.118 22 19.9616V3.12761ZM9.32812 20.5114L14.6719 21.7428V3.48699L9.32812 2.25554V20.5114ZM24 19.9626C23.9997 20.5711 23.7929 21.1612 23.4141 21.6374C23.0351 22.1136 22.5061 22.4477 21.9131 22.5846L15.8975 23.9743C15.7497 24.0084 15.596 24.0083 15.4482 23.9743L8.32812 22.3337L3.29785 23.4948C2.90336 23.5859 2.49353 23.587 2.09863 23.4977C1.70364 23.4084 1.33358 23.2312 1.0166 22.9792C0.699768 22.7272 0.443593 22.4072 0.267578 22.0427C0.0915411 21.678 0.000145257 21.2777 0 20.8727V4.03679L0.00976562 3.81023C0.0545336 3.28284 0.254302 2.77878 0.585938 2.36199C0.964862 1.88577 1.49394 1.55165 2.08691 1.41472L8.10254 0.0250737L8.21484 0.006519C8.32716 -0.00624266 8.44106 -0.000375651 8.55176 0.0250737L15.6709 1.66472L20.7021 0.504566C21.0966 0.413494 21.5065 0.412356 21.9014 0.501636C22.2964 0.59096 22.6664 0.76816 22.9834 1.02019C23.3002 1.27213 23.5564 1.59219 23.7324 1.95671C23.9085 2.32141 23.9999 2.72167 24 3.12664V19.9626ZM2 20.8718L2.00488 20.9499C2.01363 21.0269 2.03453 21.1023 2.06836 21.1725C2.11363 21.2663 2.18021 21.3489 2.26172 21.4137C2.34319 21.4785 2.43854 21.5246 2.54004 21.5475C2.64131 21.5704 2.7465 21.5699 2.84766 21.5466L7.32812 20.5114V2.25652L2.53613 3.36296C2.38377 3.39822 2.24777 3.48472 2.15039 3.60711C2.05305 3.72953 2.00006 3.88136 2 4.03777V20.8718Z" fill="black"/>
</svg>
