<svg width="18" height="20" viewBox="0 0 18 20" fill="none" xmlns="http://www.w3.org/2000/svg">
<path fill-rule="evenodd" clip-rule="evenodd" d="M2.12962 0C1.56481 0 1.02313 0.221804 0.623752 0.616617C0.22437 1.01143 0 1.54691 0 2.10526V18.9474C0 19.2265 0.112185 19.4943 0.311876 19.6917C0.511567 19.8891 0.782406 20 1.06481 20C1.34722 20 1.61806 19.8891 1.81775 19.6917C2.01744 19.4943 2.12962 19.2265 2.12962 18.9474V13.6842H16.8283C17.0444 13.6843 17.2563 13.6253 17.4406 13.5137C17.6248 13.4021 17.7743 13.2423 17.8724 13.0519C17.9705 12.8616 18.0134 12.6481 17.9964 12.4351C17.9793 12.2222 17.9031 12.018 17.776 11.8453L14.0938 6.84211L17.7738 1.83895C17.9009 1.66625 17.9772 1.46219 17.9942 1.24932C18.0113 1.03646 17.9684 0.823069 17.8705 0.632756C17.7725 0.442444 17.6232 0.282619 17.4391 0.170949C17.255 0.0592801 17.0432 0.000116761 16.8272 0H2.12962ZM2.12962 11.5789V2.10526H14.9457L12.1452 5.91368C11.9468 6.18351 11.84 6.50852 11.84 6.84211C11.84 7.17569 11.9468 7.5007 12.1452 7.77053L14.9446 11.5789H2.12962Z" fill="black"/>
</svg>
