<svg width="22" height="27" viewBox="0 0 22 27" fill="none" xmlns="http://www.w3.org/2000/svg">
<path d="M21.3353 4.60718C20.6596 3.43226 19.5131 2.62814 18.2424 2.28765L18.1269 2.2567C17.6648 2.13289 17.2872 2.15594 16.8475 2.41081C16.4388 2.54978 16.1146 2.8356 15.8749 3.26829C15.6351 3.70098 15.3109 3.98681 14.9022 4.12577C14.0849 4.4037 13.0452 4.12512 12.4763 3.47576C12.1919 3.15107 12.054 2.74144 12.0628 2.24684C12.0715 1.75224 11.9336 1.34261 11.6492 1.01792C11.3647 0.693243 10.9648 0.337607 10.6182 0.244748L10.3872 0.182842C9.11647 -0.157642 7.72154 -0.0344853 6.54892 0.645179C5.37631 1.32484 4.60365 2.36014 4.26201 3.63517L0.1002 19.1673C-0.117208 19.9786 0.0429961 20.767 0.349779 21.4703C0.772081 22.2046 1.40308 22.6222 2.21171 22.8389L4.29105 23.396C4.75312 23.5198 5.13073 23.4968 5.57047 23.2419C5.97914 23.1029 6.30334 22.8171 6.54309 22.3844C6.78284 21.9517 7.10706 21.6659 7.51574 21.5269C7.92441 21.388 8.41754 21.3959 8.76409 21.4887C9.11065 21.5816 9.54167 21.8213 9.82611 22.146C10.1105 22.4707 10.2484 22.8803 10.2397 23.3749C10.231 23.8695 10.3688 24.2792 10.6533 24.6038C10.9377 24.9285 11.3377 25.2842 11.6842 25.377L13.7636 25.9342C14.5722 26.1508 15.3585 25.9888 16.0603 25.6799C16.7932 25.2552 17.2106 24.6216 17.428 23.8102L21.5898 8.27813C22.1625 7.06502 22.011 5.78209 21.3353 4.60718ZM17.7053 16.3063L15.7415 15.7801C15.5104 15.7182 15.2483 15.7722 14.9862 15.8262C14.6931 15.9961 14.631 16.2279 14.5688 16.4598C14.5067 16.6916 14.5601 16.9544 14.6135 17.2171C14.7825 17.5109 15.0135 17.5728 15.2445 17.6347L17.2083 18.1609L15.8107 23.3769C15.7486 23.6087 15.571 23.8096 15.2778 23.9795C14.9847 24.1494 14.7536 24.0875 14.5226 24.0256L12.4743 23.3525L12.452 22.9738C12.4073 22.2165 12.1005 21.5131 11.6471 20.8947C11.0783 20.2453 10.3628 19.6809 9.55418 19.4642C8.63003 19.2166 7.72822 19.3477 6.91087 19.6256C6.20905 19.9345 5.59169 20.3902 5.1743 21.0238L4.9656 21.3406L2.88627 20.7834C2.65523 20.7215 2.45526 20.5437 2.25528 20.3659C2.08636 20.0721 2.03295 19.8094 2.09507 19.5775L3.49269 14.3615L5.45651 14.8878C5.68754 14.9497 5.94965 14.8956 6.21174 14.8416C6.5049 14.6717 6.56701 14.4399 6.62913 14.2081C6.69124 13.9763 6.63784 13.7135 6.58444 13.4507C6.41552 13.157 6.18448 13.0951 5.95344 13.0332L3.98963 12.507L6.25688 4.04546C6.47429 3.23408 7.0072 2.63147 7.74008 2.20668C8.32639 1.86685 9.11267 1.70484 9.80578 1.89055L10.1523 1.98341L10.1747 2.3621C10.2194 3.11947 10.5261 3.82284 10.9795 4.44124C11.5484 5.09061 12.2638 5.65502 13.188 5.90265C13.9966 6.11932 15.014 6.01921 15.8313 5.74128C16.5331 5.4324 17.1505 4.97665 17.5679 4.34309L17.7766 4.02632L18.1231 4.11918C18.7852 4.42081 19.4162 4.83835 19.754 5.4258C20.1763 6.16012 20.3365 6.94845 20.1191 7.75983L17.8208 16.3373L17.7053 16.3063Z" fill="#080610"/>
</svg>
