<svg width="14" height="20" viewBox="0 0 14 20" fill="none" xmlns="http://www.w3.org/2000/svg">
<path d="M7 0C3.1401 0 0 3.22154 0 7.18154C0 11.5612 3.37254 16.5896 5.38271 19.1969C5.7756 19.7073 6.36381 20 6.99775 20H7.00225C7.63582 20 8.2244 19.7073 8.61729 19.1969C10.6275 16.5896 14 11.5612 14 7.18154C14 3.22154 10.8599 0 7 0ZM7.37639 18.1604C7.36027 18.1796 7.34265 18.1973 7.32428 18.2138C7.11622 18.3965 6.80243 18.3723 6.62361 18.16C5.43932 16.6492 1.58355 11.4023 1.58355 7.18154C1.58692 4.12077 4.0166 1.62769 7 1.62462C9.9834 1.62808 12.4131 4.12115 12.4165 7.18154C12.4165 11.1908 8.89321 16.1931 7.37602 18.1604H7.37639Z" fill="#6E7881"/>
<path d="M7 3.53846C5.42245 3.53846 4.13882 4.85538 4.13882 6.47385C4.13882 8.09231 5.42245 9.40923 7 9.40923C8.57418 9.40577 9.85743 8.08885 9.86081 6.47385C9.86081 4.85538 8.57718 3.53846 6.99963 3.53846H7ZM7 5.16308C7.70442 5.16308 8.27764 5.75115 8.27764 6.47385C8.27764 7.19654 7.70442 7.78462 7 7.78462C6.29558 7.78462 5.72237 7.19654 5.72237 6.47385C5.72237 5.75115 6.29558 5.16308 7 5.16308Z" fill="#6E7881"/>
</svg>
