<svg width="25" height="25" viewBox="0 0 25 25" fill="none" xmlns="http://www.w3.org/2000/svg">
<path fill-rule="evenodd" clip-rule="evenodd" d="M10.7093 0H14.2907C16.1546 0 17.6163 3.46535e-08 18.7837 0.110464C19.9733 0.224416 20.9477 0.459297 21.807 0.984872C22.707 1.5363 23.4637 2.29297 24.0151 3.19299C24.5407 4.05112 24.7756 5.02669 24.8895 6.21621C25 7.38364 25 8.84525 25 10.7103V11.951C25 13.2778 25 14.3184 24.9419 15.1591C24.8837 16.0138 24.764 16.7254 24.4907 17.3835C24.1547 18.1947 23.6622 18.9318 23.0413 19.5527C22.4204 20.1736 21.6833 20.6661 20.8721 21.0021C19.936 21.3904 18.8709 21.4765 17.4105 21.5021C17.05 21.5008 16.6896 21.5148 16.3302 21.5439C16.1 21.5695 16.0105 21.6067 15.9581 21.637C15.9035 21.6695 15.8279 21.7277 15.6977 21.9067C15.557 22.0997 15.3977 22.3672 15.1442 22.7951L14.514 23.8602C13.6151 25.3799 11.386 25.3799 10.486 23.8602L9.85581 22.7951C9.68352 22.4915 9.49887 22.1952 9.30233 21.9067C9.17209 21.7277 9.09651 21.6695 9.04186 21.637C8.98953 21.6067 8.9 21.5695 8.66977 21.5439C8.42326 21.5172 8.1 21.5091 7.58837 21.5009C6.12907 21.4765 5.06395 21.3904 4.12791 21.0021C3.31668 20.6661 2.57958 20.1736 1.9587 19.5527C1.33781 18.9318 0.845308 18.1947 0.509302 17.3835C0.236046 16.7254 0.116279 16.0138 0.0569768 15.1591C3.03221e-08 14.3184 0 13.2778 0 11.9499V10.7103C0 8.84525 3.46539e-08 7.3848 0.110465 6.21621C0.224419 5.02669 0.459302 4.05112 0.984884 3.19299C1.53631 2.29297 2.293 1.5363 3.19302 0.984872C4.05116 0.459297 5.02674 0.224416 6.21628 0.110464C7.38372 3.46535e-08 8.84535 0 10.7105 0M6.38256 1.84765C5.31977 1.94881 4.64419 2.14184 4.10465 2.47206C3.4392 2.87971 2.87974 3.43916 2.47209 4.1046C2.14186 4.64413 1.94884 5.31971 1.84767 6.38365C1.74535 7.45805 1.74419 8.83711 1.74419 10.7569V11.9196C1.74419 13.2859 1.74419 14.2673 1.79767 15.0417C1.85 15.808 1.95 16.3079 2.12093 16.7172C2.6225 17.9281 3.58451 18.8901 4.79535 19.3916C5.39419 19.6405 6.1593 19.7335 7.61977 19.7591H7.65581C8.1186 19.7672 8.52442 19.7742 8.86163 19.8114C9.22326 19.8521 9.57791 19.9323 9.9186 20.13C10.2558 20.3277 10.5 20.5893 10.7116 20.88C10.9081 21.1498 11.1093 21.4904 11.3372 21.8753L11.9872 22.973C12.0416 23.06 12.1171 23.1317 12.2068 23.1814C12.2966 23.2312 12.3974 23.2572 12.5 23.2572C12.6026 23.2572 12.7034 23.2312 12.7932 23.1814C12.8829 23.1317 12.9584 23.06 13.0128 22.973L13.6628 21.8753C13.8907 21.4904 14.093 21.1498 14.2884 20.88C14.5 20.5893 14.7442 20.3265 15.0814 20.13C15.4221 19.9323 15.7767 19.8509 16.1384 19.8114C16.4756 19.7742 16.8814 19.7672 17.3442 19.7591H17.3814C18.8407 19.7335 19.6058 19.6405 20.2046 19.3916C21.4155 18.8901 22.3775 17.9281 22.8791 16.7172C23.05 16.3079 23.15 15.808 23.2023 15.0417C23.2558 14.2673 23.2558 13.2859 23.2558 11.9196V10.7569C23.2558 8.83711 23.2558 7.45805 23.1523 6.38248C23.0512 5.31971 22.8581 4.64413 22.5279 4.1046C22.1204 3.43971 21.5614 2.88069 20.8965 2.47323C20.357 2.143 19.6814 1.94998 18.6174 1.84882C17.543 1.74649 16.164 1.74533 14.2442 1.74533H10.7558C8.83605 1.74533 7.45698 1.74533 6.38139 1.84882" fill="black"/>
<path d="M9.01163 11.3371C9.01163 11.6455 8.88912 11.9412 8.67105 12.1593C8.45299 12.3773 8.15723 12.4999 7.84884 12.4999C7.54045 12.4999 7.24469 12.3773 7.02662 12.1593C6.80855 11.9412 6.68605 11.6455 6.68605 11.3371C6.68605 11.0287 6.80855 10.7329 7.02662 10.5149C7.24469 10.2968 7.54045 10.1743 7.84884 10.1743C8.15723 10.1743 8.45299 10.2968 8.67105 10.5149C8.88912 10.7329 9.01163 11.0287 9.01163 11.3371ZM13.6628 11.3371C13.6628 11.6455 13.5403 11.9412 13.3222 12.1593C13.1042 12.3773 12.8084 12.4999 12.5 12.4999C12.1916 12.4999 11.8958 12.3773 11.6778 12.1593C11.4597 11.9412 11.3372 11.6455 11.3372 11.3371C11.3372 11.0287 11.4597 10.7329 11.6778 10.5149C11.8958 10.2968 12.1916 10.1743 12.5 10.1743C12.8084 10.1743 13.1042 10.2968 13.3222 10.5149C13.5403 10.7329 13.6628 11.0287 13.6628 11.3371ZM18.314 11.3371C18.314 11.6455 18.1914 11.9412 17.9734 12.1593C17.7553 12.3773 17.4596 12.4999 17.1512 12.4999C16.8428 12.4999 16.547 12.3773 16.3289 12.1593C16.1109 11.9412 15.9884 11.6455 15.9884 11.3371C15.9884 11.0287 16.1109 10.7329 16.3289 10.5149C16.547 10.2968 16.8428 10.1743 17.1512 10.1743C17.4596 10.1743 17.7553 10.2968 17.9734 10.5149C18.1914 10.7329 18.314 11.0287 18.314 11.3371Z" fill="black"/>
</svg>
