<svg width="19" height="25" viewBox="0 0 19 25" fill="none" xmlns="http://www.w3.org/2000/svg">
<path d="M3.07905 0.665153L4.80829 0.144298C5.59546 -0.0931867 6.44216 -0.0360925 7.19032 0.304923C7.93848 0.645938 8.53698 1.24757 8.87408 1.9975L9.95017 4.39135C10.2401 5.03623 10.3209 5.75572 10.1812 6.44884C10.0414 7.14197 9.68816 7.77395 9.17097 8.25609L7.29068 10.0093C7.26818 10.0316 7.24921 10.0573 7.23443 10.0853C7.03755 10.4874 7.33652 11.5614 8.27302 13.1844C9.32931 15.0137 10.145 15.7366 10.5231 15.6252L12.9909 14.8699C13.6668 14.6635 14.3902 14.6738 15.06 14.8993C15.7297 15.1248 16.312 15.5541 16.7255 16.1273L18.2547 18.2451C18.7348 18.91 18.9572 19.7267 18.8805 20.5432C18.8039 21.3598 18.4334 22.1208 17.838 22.6848L16.5223 23.9297C16.0648 24.363 15.5092 24.6793 14.903 24.8514C14.2968 25.0236 13.6579 25.0465 13.0409 24.9182C9.37723 24.1557 6.0948 21.2056 3.16551 16.1325C0.23518 11.0562 -0.6784 6.73311 0.498733 3.17776C0.695778 2.58253 1.03321 2.04348 1.4825 1.60615C1.9318 1.16882 2.47872 0.846063 3.07905 0.665153ZM3.53219 2.16105C3.17198 2.26955 2.84317 2.46315 2.57356 2.72552C2.30395 2.98788 2.10145 3.31128 1.98317 3.6684C0.968544 6.73207 1.79045 10.6239 4.51973 15.3512C7.24693 20.0753 10.2033 22.7317 13.3607 23.388C13.7309 23.4648 14.1143 23.4509 14.4779 23.3475C14.8416 23.2441 15.1749 23.0543 15.4494 22.7942L16.764 21.5504C17.0847 21.2468 17.2843 20.837 17.3257 20.3973C17.3671 19.9576 17.2475 19.5178 16.989 19.1597L15.4598 17.0408C15.2372 16.7323 14.9237 16.5011 14.5632 16.3797C14.2026 16.2583 13.8131 16.2527 13.4493 16.3637L10.9752 17.121C9.60641 17.5284 8.31885 16.3877 6.92088 13.9647C5.73645 11.9146 5.32602 10.4333 5.83229 9.39885C5.9309 9.19745 6.06216 9.02002 6.22605 8.86654L8.10634 7.11334C8.38494 6.85373 8.57524 6.51339 8.65053 6.1401C8.72582 5.76681 8.68233 5.37931 8.52615 5.032L7.44902 2.63919C7.26751 2.23528 6.94518 1.91125 6.54224 1.7276C6.13929 1.54395 5.68327 1.51325 5.25935 1.64124L3.53219 2.16105Z" fill="black"/>
</svg>
