<svg width="29" height="23" viewBox="0 0 29 23" fill="none" xmlns="http://www.w3.org/2000/svg">
<path d="M12.9424 4.40723L12.6953 4.55273C11.3433 5.34702 10.2293 6.19801 9.3457 7.10254L8.98145 7.49316C8.18639 8.39094 7.64357 9.31586 7.33984 10.2686C9.03982 10.9533 10.3559 11.7862 11.25 12.7871L11.4316 12.9912C12.3114 14.0256 12.7548 15.2423 12.7549 16.6211C12.7549 18.1266 12.186 19.4138 11.0684 20.4531C9.95283 21.4903 8.59232 22.0078 7.01758 22.0078C5.07114 22.0078 3.4662 21.3778 2.25684 20.0889L2.25293 20.085C1.06775 18.7972 0.5 17.0837 0.5 15.002C0.500041 12.0544 1.51374 9.38545 3.51758 7.00977V7.00879C5.53667 4.62098 8.45866 2.63944 12.249 1.04688L12.9424 0.755859V4.40723ZM28.5 4.40723L28.2529 4.55273C26.7085 5.46008 25.486 6.44056 24.5732 7.48926L24.5703 7.49316C23.7753 8.39094 23.2324 9.31587 22.9287 10.2686C24.6307 10.9541 25.9476 11.7885 26.8418 12.791C27.82 13.8689 28.3124 15.1538 28.3125 16.6211C28.3125 18.1266 27.7437 19.4137 26.626 20.4531C25.5104 21.4904 24.15 22.0078 22.5752 22.0078C20.6288 22.0078 19.0315 21.3775 17.8418 20.085C16.6566 18.7972 16.0889 17.0836 16.0889 15.002C16.0889 12.0544 17.1026 9.38544 19.1064 7.00977V7.00879C21.125 4.62157 24.0359 2.63962 27.8057 1.04688L28.5 0.753906V4.40723Z" stroke="#272727"/>
</svg>
